<svg version="1.2" xmlns="http://www.w3.org/2000/svg" viewBox="0 0 1000 955" width="1000" height="955">
	<title>gramophone-vinyl-vectorportal-ai</title>
	<style>
		.s0 { fill: #e6e6e6 } 
		.s1 { fill: #808080 } 
		.s2 { fill: #a8a8a8 } 
		.s3 { mix-blend-mode: multiply;fill: #e6e6e6 } 
		.s4 { fill: #151116 } 
		.s5 { fill: #b0b0b0 } 
		.s6 { fill: #231f20 } 
	</style>
	<g id="Vectorportal.com">
		<path id="&lt;Path&gt;" class="s0" d="m1000 1000h-1000v-1000h1000z"/>
		<g id="&lt;Group&gt;">
			<g id="&lt;Group&gt;" style="mix-blend-mode: multiply">
				<path id="&lt;Path&gt;" class="s0" d="m136.8 876.7c0 25.8-20.9 46.7-46.6 46.7-25.8 0-46.7-20.9-46.7-46.7 0-25.8 20.9-46.7 46.7-46.7 25.7 0 46.6 20.9 46.6 46.7z"/>
				<path id="&lt;Path&gt;" class="s0" d="m44.6 229.4c4-13.4 18.2-21.1 31.6-17 13.4 4 21.1 18.2 17 31.6-4 13.4-18.1 21.1-31.6 17-13.4-4-21.1-18.1-17-31.6z"/>
				<path id="&lt;Path&gt;" class="s0" d="m90.5 178.1c-7.5 12-23.1 15.6-35 8.2-11.9-7.5-15.6-23.1-8.1-35 7.4-11.9 23-15.6 35-8.2 11.9 7.5 15.5 23.1 8.1 35z"/>
				<path id="&lt;Path&gt;" class="s0" d="m49.5 76.3c9-10.7 25-12.1 35.8-3 10.7 9 12.1 25 3 35.8-9 10.7-25 12.1-35.7 3-10.8-9-12.2-25-3.1-35.8z"/>
			</g>
			<g id="&lt;Group&gt;">
				<path id="&lt;Path&gt;" class="s1" d="m131.8 870.7c0 25.8-20.9 46.7-46.6 46.7-25.8 0-46.7-20.9-46.7-46.7 0-25.8 20.9-46.7 46.7-46.7 25.7 0 46.6 20.9 46.6 46.7z"/>
				<path id="&lt;Path&gt;" class="s2" d="m123.9 870.7c0 21.4-17.3 38.8-38.7 38.8-21.4 0-38.8-17.4-38.8-38.8 0-21.4 17.4-38.8 38.8-38.8 21.4 0 38.7 17.4 38.7 38.8z"/>
				<path id="&lt;Path&gt;" class="s1" d="m95.2 850.7c0 5.6-4.5 10.1-10 10.1-5.6 0-10.1-4.5-10.1-10.1 0-5.6 4.5-10.1 10.1-10.1 5.5 0 10 4.5 10 10.1z"/>
			</g>
			<g id="&lt;Group&gt;">
				<path id="&lt;Path&gt;" class="s1" d="m88.2 238c-4 13.4-18.1 21.1-31.6 17-13.4-4-21.1-18.1-17-31.6 4-13.4 18.2-21.1 31.6-17 13.4 4 21.1 18.2 17 31.6z"/>
				<path id="&lt;Path&gt;" class="s2" d="m84.1 236.8c-3.3 11.1-15.1 17.5-26.3 14.1-11.1-3.3-17.5-15.1-14.1-26.3 3.3-11.1 15.1-17.5 26.3-14.1 11.1 3.3 17.5 15.1 14.1 26.3z"/>
				<path id="&lt;Path&gt;" class="s1" d="m72.3 221.8c-0.9 2.9-3.9 4.6-6.8 3.7-2.9-0.8-4.6-3.9-3.7-6.8 0.9-2.9 3.9-4.5 6.8-3.7 2.9 0.9 4.5 3.9 3.7 6.8z"/>
			</g>
			<g id="&lt;Group&gt;">
				<path id="&lt;Path&gt;" class="s1" d="m77.4 137.1c11.9 7.5 15.5 23.1 8.1 35-7.5 12-23.1 15.6-35 8.2-11.9-7.5-15.6-23.1-8.1-35 7.4-11.9 23-15.6 35-8.2z"/>
				<path id="&lt;Path&gt;" class="s2" d="m75.1 140.8c9.9 6.2 12.9 19.2 6.7 29.1-6.2 9.9-19.2 12.9-29.1 6.7-9.9-6.2-12.9-19.2-6.7-29.1 6.2-9.9 19.2-12.9 29.1-6.7z"/>
				<path id="&lt;Path&gt;" class="s1" d="m57.6 148.3c2.5 1.6 3.3 5 1.7 7.5-1.6 2.6-5 3.4-7.5 1.8-2.6-1.6-3.4-5-1.8-7.6 1.6-2.5 5-3.3 7.6-1.7z"/>
			</g>
			<g id="&lt;Group&gt;">
				<path id="&lt;Path&gt;" class="s1" d="m83.3 103.1c-9 10.7-25 12.1-35.7 3-10.8-9-12.2-25-3.1-35.8 9-10.7 25-12.1 35.8-3 10.7 9 12.1 25 3 35.8z"/>
				<path id="&lt;Path&gt;" class="s2" d="m80.1 100.3c-7.5 8.9-20.9 10.1-29.8 2.6-8.9-7.6-10-20.9-2.5-29.8 7.5-8.9 20.8-10.1 29.7-2.5 8.9 7.5 10.1 20.8 2.6 29.7z"/>
				<path id="&lt;Path&gt;" class="s1" d="m75.1 81.9c-1.9 2.3-5.4 2.6-7.7 0.7-2.3-2-2.6-5.4-0.7-7.8 2-2.3 5.4-2.6 7.7-0.6 2.4 1.9 2.7 5.4 0.7 7.7z"/>
			</g>
		</g>
		<path id="&lt;Path&gt;" class="s3" d="m961.5 621v303.4c0 7.9-6.4 14.3-14.3 14.3h-28.8c-7.8 0-14.2-6.4-14.2-14.3v-303.4c0-7.9 6.4-14.3 14.2-14.3h28.8c7.9 0 14.3 6.4 14.3 14.3z"/>
		<g id="&lt;Group&gt;">
			<path id="&lt;Path&gt;" class="s2" d="m942.2 930.7h-28.8c-7.8 0-14.2-6.4-14.2-14.3v-303.4c0-7.9 6.4-14.3 14.2-14.3h28.8c7.9 0 14.3 6.4 14.3 14.3v303.4c0 7.9-6.4 14.3-14.3 14.3z"/>
			<path id="&lt;Path&gt;" class="s4" d="m927.8 898.7c-2.5 0-4.6-2.1-4.6-4.7v-258.6c0-2.6 2.1-4.7 4.6-4.7 2.6 0 4.7 2.1 4.7 4.7v258.6c0 2.6-2.1 4.7-4.7 4.7z"/>
			<path id="&lt;Path&gt;" class="s3" d="m940.5 738h-25.3c-4.1 0-7.4-3.2-7.4-7.3v-14.7c0-4 3.3-7.3 7.4-7.3h25.3c4.1 0 7.3 3.3 7.3 7.3v14.7c0 4.1-3.2 7.3-7.3 7.3z"/>
			<path id="&lt;Path&gt;" class="s0" d="m940.5 728h-25.3c-4.1 0-7.4-3.2-7.4-7.3v-14.7c0-4 3.3-7.3 7.4-7.3h25.3c4.1 0 7.3 3.3 7.3 7.3v14.7c0 4.1-3.2 7.3-7.3 7.3z"/>
			<path id="&lt;Path&gt;" class="s5" d="m936.7 723.6h-17.7c-2.9 0-5.2-2.3-5.2-5.1v-10.3c0-2.8 2.3-5.1 5.2-5.1h17.7c2.8 0 5.1 2.3 5.1 5.1v10.3c0 2.8-2.3 5.1-5.1 5.1z"/>
		</g>
		<g id="&lt;Group&gt;">
			<path id="&lt;Compound Path&gt;" class="s6" d="m24.9-81.8q-3.8 0.4-6.5 4-3.2 4-3.2 9.7 0 5.7 3.2 9.8 2.7 3.6 6.5 4v7.9q-8-0.3-13.7-6.4-6.1-6.3-6.1-15.3 0-9 6.1-15.4 5.7-6 13.7-6.3zm8.8 4q-3-3.9-7.2-4.1v-7.9q8.1 0.3 13.9 6.3 3 3.1 4.5 6.9l-8.6 4.2q-0.7-3-2.6-5.4zm6.7 25q-5.8 6.2-13.9 6.4v-7.8q4.2-0.2 7.2-4.1 1.5-1.9 2.2-4.1l8.4 4.3q-1.5 2.9-3.9 5.3z"/>
			<path id="&lt;Compound Path&gt;" class="s6" d="m57.4-46.4h-9.8v-43.4h9.8zm19.8-19.5q1.2 1.2 2.2 3.4 0.5 0.5 0.8 3.9l0.3 1.5 0.9 4.8q0.3 0.8 0.8 2.9 0.5 0.8 1.9 2.9h-10.3q-0.6 0-1.9-3.7-0.3-0.4-1.5-8.6-0.6-1.9-2.5-3-1.8-0.7-8.9-0.7v-7.8h7.9q4.6-1.7 4.6-6.1v-0.8q-1-4.9-5.5-5h-7v-7.7h7q8.7 0 12.6 4.7 2.8 4.1 2.8 8.5v0.6q0 5-2.9 8.9-0.6 0.7-1.3 1.3z"/>
			<path id="&lt;Compound Path&gt;" class="s6" d="m96.4-46.4h-9.8v-43.4h9.8zm22-43.3v7.9h-20.3v-7.9zm-1.6 16.4v8h-18.6v-8zm1.7 18.9v7.9h-20.3v-7.9z"/>
			<path id="&lt;Compound Path&gt;" class="s6" d="m145.3-89.7l15.4 43.3h-11.2l-2.9-9.2h-12l2.3-8h7.4v-0.2l-4.5-15.9h-0.1l-9.4 33.3h-8.8v-6.3l12.6-37z"/>
			<path id="&lt;Compound Path&gt;" class="s6" d="m194.9-89.6v7.9h-32.2v-7.9zm-11 43.1h-9.8v-33.6h9.8z"/>
			<path id="&lt;Compound Path&gt;" class="s6" d="m208.1-46.4h-9.8v-43.4h9.8zm22-43.3v7.9h-20.3v-7.9zm-1.6 16.4v8h-18.6v-8zm1.7 18.9v7.9h-20.3v-7.9z"/>
			<path id="&lt;Compound Path&gt;" class="s6" d="m243.1-46.4h-9.9v-43.4h9.9zm14-30.3q-1-5.1-5.5-5.1l-7-0.1v-8h7q8.7 0 12.6 4.9 2.8 4.2 2.8 8.8v16q0 4.6-2.8 8.8-3.9 5-12.6 5h-7v-8l7-0.1q4.5-0.1 5.5-5.2z"/>
			<path id="&lt;Compound Path&gt;" class="s6" d="m297.4-89.8h0.1q10.4 0 13.2 7.4 0.6 1.5 0.6 3.4v0.8q0 1.7-0.8 2.8-0.9 2.8-3.2 4.6l-1.4 0.8-0.7 0.2q1.2 0.7 1.9 1 4.6 2.8 5.3 8.2 0.1 0.6 0.1 1.5-0.2 3.8-0.7 4.4-0.3 1.7-2.2 3.9-2.1 3.1-7.8 4.3l-2.6 0.2h-0.2q-0.3 0-1.6 0h-9.1v-7.9h10.1q3.9-1.3 4-4.8v-1.3q0.2-2.3-2.1-3.8-0.5-0.8-2.9-1l-9.1-0.1 0.1-8.1h9q0.5-0.1 1.5-0.1 2.7-1.2 2.7-4.3l-0.1-1.1-0.3-0.8h-0.2q-1.2-1.7-3.6-2l-9.2 0.1 0.1-8.3z"/>
			<path id="&lt;Compound Path&gt;" class="s6" d="m315.4-89.8h10.8l6.4 11-5.4 9.2zm12.2 22.3l13.1-22.3h10.8l-14 24v19.3h-9.8z"/>
			<path id="&lt;Compound Path&gt;" class="s6" d="m391.8-46.4h-3.2l-15.8-43.3h9.3l9.7 26.3zm1.8-16.6l9.7-26.6h9.4l-15.8 43.3h-3.3z"/>
			<path id="&lt;Compound Path&gt;" class="s6" d="m424.5-46.4h-9.9v-43.4h9.9zm22-43.3v7.9h-20.3v-7.9zm-1.6 16.4v8h-18.7v-8zm1.7 18.9v7.9h-20.3v-7.9z"/>
			<path id="&lt;Compound Path&gt;" class="s6" d="m469.4-81.8q-3.8 0.4-6.6 4-3.1 4-3.2 9.7 0.1 5.7 3.2 9.8 2.8 3.6 6.6 4v7.9q-8-0.3-13.8-6.4-6-6.3-6-15.3 0-9 6-15.4 5.8-6 13.8-6.3zm8.7 4q-3-3.9-7.2-4.1v-7.9q8.2 0.3 14 6.3 3 3.1 4.5 6.9l-8.6 4.2q-0.8-3-2.7-5.4zm6.8 25q-5.8 6.2-14 6.4v-7.8q4.2-0.2 7.2-4.1 1.5-1.9 2.3-4.1l8.3 4.3q-1.4 2.9-3.8 5.3z"/>
			<path id="&lt;Compound Path&gt;" class="s6" d="m524.2-89.6v7.9h-32.2v-7.9zm-11 43.1h-9.8v-33.6h9.8z"/>
			<path id="&lt;Compound Path&gt;" class="s6" d="m547.4-81.8q-3.8 0.4-6.6 4-3.2 4-3.2 9.7 0 5.7 3.2 9.8 2.8 3.6 6.6 4v7.9q-8-0.3-13.8-6.4-6.1-6.3-6.1-15.3 0-9 6.1-15.4 5.8-6 13.8-6.3zm1.5 27.6q4.2-0.2 7.2-4.1 3.2-4 3.2-9.7 0-5.8-3.2-9.8-3-3.9-7.2-4.1v-7.9q8.2 0.3 14 6.3 6.1 6.4 6.1 15.4 0 9-6.1 15.3-5.8 6.2-14 6.4z"/>
			<path id="&lt;Compound Path&gt;" class="s6" d="m581.7-46.4h-9.8v-43.4h9.8zm19.8-19.5q1.2 1.2 2.2 3.4 0.5 0.5 0.8 3.9l0.3 1.5 0.9 4.8q0.3 0.8 0.8 2.9 0.5 0.8 1.8 2.9h-10.2q-0.6 0-1.9-3.7-0.3-0.4-1.5-8.6-0.6-1.9-2.5-3-1.8-0.7-8.9-0.7v-7.8h7.9q4.6-1.7 4.6-6.1v-0.8q-1-4.9-5.5-5h-7v-7.7h7q8.7 0 12.6 4.7 2.8 4.1 2.8 8.5v0.6q0 5-2.9 8.9-0.6 0.7-1.3 1.3z"/>
			<path id="&lt;Compound Path&gt;" class="s6" d="m620.7-46.4h-9.8v-43.4h9.8zm8.5-43.5q8.8 0 12.7 4.9 2.8 4.2 2.8 8.8v0.6q0 5.3-2.9 9.3-4 5.3-15.6 4.9h-3.9v-8.2h7.9q4.6-1.6 4.6-6.3v-0.8q-1-5.1-5.6-5.2h-6.9v-8z"/>
			<path id="&lt;Compound Path&gt;" class="s6" d="m667.7-81.8q-3.8 0.4-6.6 4-3.2 4-3.2 9.7 0 5.7 3.2 9.8 2.8 3.6 6.6 4v7.9q-8-0.3-13.8-6.4-6-6.3-6-15.3 0-9 6-15.4 5.8-6 13.8-6.3zm1.5 27.6q4.2-0.2 7.2-4.1 3.2-4 3.2-9.7 0-5.8-3.2-9.8-3-3.9-7.2-4.1v-7.9q8.2 0.3 14 6.3 6.1 6.4 6.1 15.4 0 9-6.1 15.3-5.8 6.2-14 6.4z"/>
			<path id="&lt;Compound Path&gt;" class="s6" d="m702-46.4h-9.8v-43.4h9.8zm19.8-19.5q1.2 1.2 2.2 3.4 0.5 0.5 0.8 3.9l0.3 1.5 0.9 4.8q0.3 0.8 0.8 2.9 0.5 0.8 1.9 2.9h-10.3q-0.6 0-1.9-3.7-0.3-0.4-1.5-8.6-0.6-1.9-2.5-3-1.8-0.7-8.9-0.7v-7.8h7.9q4.6-1.7 4.6-6.1v-0.8q-1-4.9-5.5-5h-7v-7.7h7q8.7 0 12.6 4.7 2.8 4.1 2.8 8.5v0.6q0 5-2.9 8.9-0.6 0.7-1.3 1.3z"/>
			<path id="&lt;Compound Path&gt;" class="s6" d="m763.4-89.6v7.9h-32.3v-7.9zm-11 43.1h-9.8v-33.6h9.8z"/>
			<path id="&lt;Compound Path&gt;" class="s6" d="m790.5-89.7l15.3 43.3h-11.2l-2.9-9.2h-12l2.4-8h7.3v-0.2l-4.4-15.9h-0.2l-9.4 33.3h-8.7v-6.3l12.6-37z"/>
			<path id="&lt;Compound Path&gt;" class="s6" d="m817.8-46.4h-9.9v-43.4h9.9zm22.3-8v8h-20.3v-8z"/>
			<path id="&lt;Compound Path&gt;" class="s6" d="m853.2-54.4v8h-9.8v-8z"/>
			<path id="&lt;Compound Path&gt;" class="s6" d="m876.1-81.8q-3.8 0.4-6.5 4-3.2 4-3.2 9.7 0 5.7 3.2 9.8 2.7 3.6 6.5 4v7.9q-8-0.3-13.7-6.4-6.1-6.3-6.1-15.3 0-9 6.1-15.4 5.7-6 13.7-6.3zm8.8 4q-3-3.9-7.2-4.1v-7.9q8.1 0.3 13.9 6.3 3 3.1 4.5 6.9l-8.6 4.2q-0.7-3-2.6-5.4zm6.7 25q-5.8 6.2-13.9 6.4v-7.8q4.2-0.2 7.2-4.1 1.5-1.9 2.2-4.1l8.4 4.3q-1.5 2.9-3.9 5.3z"/>
			<path id="&lt;Compound Path&gt;" class="s6" d="m918.6-81.8q-3.8 0.4-6.5 4-3.2 4-3.2 9.7 0 5.7 3.2 9.8 2.7 3.6 6.5 4v7.9q-8-0.3-13.7-6.4-6.1-6.3-6.1-15.3 0-9 6.1-15.4 5.7-6 13.7-6.3zm1.6 27.6q4.2-0.2 7.2-4.1 3.1-4 3.1-9.7 0-5.8-3.1-9.8-3-3.9-7.2-4.1v-7.9q8.1 0.3 13.9 6.3 6.1 6.4 6.1 15.4 0 9-6.1 15.3-5.8 6.2-13.9 6.4z"/>
			<path id="&lt;Compound Path&gt;" class="s6" d="m953-46.4h-9.9v-40.7l9.9 16.4zm14.2-3l-23.9-40.3h9.3l14.6 24.6zm2.3-15.8l14.7-24.5h9.3l-24 40.3zm13.9-5.6l9.9-16.4v40.7h-9.9z"/>
		</g>
		<g id="&lt;Group&gt;">
			<path id="&lt;Compound Path&gt;" class="s6" d="m227.9 884.9q-1.6 0.1-2.7 1.6-1.3 1.6-1.3 3.9 0 2.3 1.3 4 1.1 1.4 2.7 1.6v3.1q-3.3-0.1-5.6-2.5-2.4-2.6-2.4-6.2 0-3.6 2.4-6.2 2.3-2.4 5.6-2.6zm3.5 1.6q-1.2-1.5-2.9-1.6v-3.2q3.3 0.1 5.6 2.6 1.2 1.2 1.8 2.7l-3.4 1.7q-0.3-1.2-1.1-2.2zm2.7 10.2q-2.3 2.4-5.6 2.5v-3.1q1.7-0.1 2.9-1.7 0.6-0.7 0.9-1.7l3.4 1.8q-0.6 1.2-1.6 2.2z"/>
			<path id="&lt;Compound Path&gt;" class="s6" d="m241 899.2h-4v-17.6h4zm8-7.8q0.4 0.4 0.9 1.3 0.2 0.2 0.3 1.6l0.1 0.6 0.4 2q0.1 0.3 0.3 1.1 0.2 0.3 0.7 1.2h-4.1q-0.2 0-0.8-1.5-0.1-0.2-0.6-3.5-0.2-0.7-1-1.2-0.7-0.3-3.6-0.3v-3.1h3.2q1.9-0.7 1.9-2.5v-0.3q-0.4-2-2.3-2h-2.8v-3.1h2.8q3.6 0 5.1 1.9 1.2 1.6 1.2 3.4v0.2q0 2.1-1.2 3.6-0.2 0.3-0.5 0.6z"/>
			<path id="&lt;Compound Path&gt;" class="s6" d="m256.7 899.2h-3.9v-17.6h3.9zm8.9-17.5v3.3h-8.2v-3.3zm-0.6 6.7v3.2h-7.5v-3.2zm0.6 7.6v3.2h-8.2v-3.2z"/>
			<path id="&lt;Compound Path&gt;" class="s6" d="m276.5 881.7l6.2 17.5h-4.5l-1.2-3.8h-4.9l1-3.2h3v-0.1l-1.8-6.4h-0.1l-3.8 13.5h-3.5v-2.6l5.1-14.9z"/>
			<path id="&lt;Compound Path&gt;" class="s6" d="m296.5 881.7v3.2h-13v-3.2zm-4.4 17.4h-4v-13.5h4z"/>
			<path id="&lt;Compound Path&gt;" class="s6" d="m301.8 899.2h-4v-17.6h4zm8.9-17.5v3.3h-8.2v-3.3zm-0.6 6.7v3.2h-7.6v-3.2zm0.7 7.6v3.2h-8.2v-3.2z"/>
			<path id="&lt;Compound Path&gt;" class="s6" d="m315.9 899.2h-3.9v-17.6h3.9zm5.7-12.2q-0.4-2-2.2-2.1h-2.8v-3.2h2.8q3.5 0 5.1 1.9 1.1 1.8 1.1 3.6v6.5q0 1.8-1.1 3.5-1.6 2-5.1 2h-2.8v-3.2h2.8q1.8-0.1 2.2-2.1z"/>
			<path id="&lt;Compound Path&gt;" class="s6" d="m337.9 881.6q4.2 0 5.3 3 0.3 0.6 0.3 1.4v0.3q0 0.7-0.3 1.2-0.4 1.1-1.3 1.8l-0.6 0.3-0.3 0.1q0.5 0.3 0.8 0.4 1.9 1.1 2.1 3.3 0.1 0.3 0.1 0.6-0.1 1.6-0.3 1.8-0.1 0.7-0.9 1.6-0.9 1.2-3.2 1.7l-1 0.1h-0.1q-0.1 0-0.6 0h-3.7v-3.2h4.1q1.6-0.5 1.6-1.9v-0.5q0.1-1-0.9-1.6-0.2-0.3-1.1-0.4h-3.7v-3.3h3.7q0.2 0 0.6 0 1.1-0.5 1.1-1.8l-0.1-0.4-0.1-0.3h-0.1q-0.5-0.7-1.4-0.8h-3.7v-3.4z"/>
			<path id="&lt;Compound Path&gt;" class="s6" d="m345.1 881.7h4.4l2.6 4.4-2.2 3.7zm4.9 9l5.3-9h4.4l-5.7 9.7v7.8h-3.9z"/>
			<path id="&lt;Compound Path&gt;" class="s6" d="m376 899.2h-1.3l-6.4-17.5h3.8l3.9 10.6zm0.7-6.7l3.9-10.7h3.8l-6.4 17.4h-1.3z"/>
			<path id="&lt;Compound Path&gt;" class="s6" d="m389.2 899.2h-4v-17.6h4zm8.9-17.5v3.3h-8.2v-3.3zm-0.7 6.7v3.2h-7.5v-3.2zm0.7 7.6v3.2h-8.2v-3.2z"/>
			<path id="&lt;Compound Path&gt;" class="s6" d="m407.3 884.9q-1.5 0.1-2.6 1.6-1.3 1.6-1.3 3.9 0 2.3 1.3 4 1.1 1.4 2.6 1.6v3.1q-3.2-0.1-5.5-2.5-2.5-2.6-2.5-6.2 0-3.6 2.5-6.2 2.3-2.4 5.5-2.6zm3.5 1.6q-1.2-1.5-2.9-1.6v-3.2q3.3 0.1 5.7 2.6 1.2 1.2 1.8 2.7l-3.5 1.7q-0.3-1.2-1.1-2.2zm2.8 10.2q-2.4 2.4-5.7 2.5v-3.1q1.7-0.1 2.9-1.7 0.6-0.7 1-1.7l3.3 1.8q-0.6 1.2-1.5 2.2z"/>
			<path id="&lt;Compound Path&gt;" class="s6" d="m429.5 881.7v3.2h-13.1v-3.2zm-4.4 17.4h-4v-13.5h4z"/>
			<path id="&lt;Compound Path&gt;" class="s6" d="m438.8 884.9q-1.5 0.1-2.7 1.6-1.2 1.6-1.2 3.9 0 2.3 1.2 4 1.2 1.4 2.7 1.6v3.1q-3.2-0.1-5.6-2.5-2.4-2.6-2.4-6.2 0-3.6 2.4-6.2 2.4-2.4 5.6-2.6zm0.6 11.2q1.7-0.1 2.9-1.7 1.3-1.6 1.3-3.9 0-2.3-1.3-4-1.2-1.5-2.9-1.6v-3.2q3.3 0.1 5.7 2.6 2.4 2.5 2.4 6.2 0 3.6-2.4 6.2-2.4 2.4-5.7 2.5z"/>
			<path id="&lt;Compound Path&gt;" class="s6" d="m452.7 899.2h-4v-17.6h4zm8-7.8q0.4 0.4 0.9 1.3 0.1 0.2 0.3 1.6l0.1 0.6 0.4 2q0.1 0.3 0.3 1.1 0.2 0.3 0.7 1.2h-4.1q-0.2 0-0.8-1.5-0.1-0.2-0.6-3.5-0.2-0.7-1-1.2-0.7-0.3-3.6-0.3v-3.1h3.2q1.9-0.7 1.9-2.5v-0.3q-0.5-2-2.3-2h-2.8v-3.1h2.8q3.5 0 5.1 1.9 1.1 1.6 1.1 3.4v0.2q0 2.1-1.1 3.6-0.3 0.3-0.5 0.6z"/>
			<path id="&lt;Compound Path&gt;" class="s6" d="m468.4 899.2h-4v-17.6h4zm3.5-17.5q3.5 0 5.1 1.9 1.1 1.8 1.1 3.6v0.3q0 2.1-1.2 3.7-1.6 2.1-6.3 2h-1.5v-3.3h3.1q1.9-0.7 1.9-2.6v-0.3q-0.4-2-2.2-2.1h-2.8v-3.2z"/>
			<path id="&lt;Compound Path&gt;" class="s6" d="m487.4 884.9q-1.6 0.1-2.7 1.6-1.3 1.6-1.3 3.9 0 2.3 1.3 4 1.1 1.4 2.7 1.6v3.1q-3.3-0.1-5.6-2.5-2.4-2.6-2.4-6.2 0-3.6 2.4-6.2 2.3-2.4 5.6-2.6zm0.6 11.2q1.7-0.1 2.9-1.7 1.3-1.6 1.3-3.9 0-2.3-1.3-4-1.2-1.5-2.9-1.6v-3.2q3.3 0.1 5.6 2.6 2.5 2.5 2.5 6.2 0 3.6-2.5 6.2-2.3 2.4-5.6 2.5z"/>
			<path id="&lt;Compound Path&gt;" class="s6" d="m501.2 899.2h-3.9v-17.6h3.9zm8-7.8q0.5 0.4 0.9 1.3 0.2 0.2 0.3 1.6l0.2 0.6 0.3 2q0.1 0.3 0.3 1.1 0.3 0.3 0.8 1.2h-4.2q-0.2 0-0.7-1.5-0.1-0.2-0.6-3.5-0.3-0.7-1-1.2-0.8-0.3-3.6-0.3v-3.1h3.2q1.8-0.7 1.8-2.5v-0.3q-0.4-2-2.2-2h-2.8v-3.1h2.8q3.5 0 5.1 1.9 1.1 1.6 1.1 3.4v0.2q0 2.1-1.2 3.6-0.2 0.3-0.5 0.6z"/>
			<path id="&lt;Compound Path&gt;" class="s6" d="m526 881.7v3.2h-13v-3.2zm-4.4 17.4h-4v-13.5h4z"/>
			<path id="&lt;Compound Path&gt;" class="s6" d="m537 881.7l6.1 17.5h-4.5l-1.1-3.8h-4.9l0.9-3.2h3v-0.1l-1.8-6.4-3.8 13.5h-3.6v-2.6l5.1-14.9z"/>
			<path id="&lt;Compound Path&gt;" class="s6" d="m548 899.2h-4v-17.6h4zm9-3.2v3.2h-8.2v-3.2z"/>
			<path id="&lt;Compound Path&gt;" class="s6" d="m562.3 895.9v3.3h-4v-3.3z"/>
			<path id="&lt;Compound Path&gt;" class="s6" d="m571.5 884.9q-1.5 0.1-2.6 1.6-1.3 1.6-1.3 3.9 0 2.3 1.3 4 1.1 1.4 2.6 1.6v3.1q-3.2-0.1-5.5-2.5-2.5-2.6-2.5-6.2 0-3.6 2.5-6.2 2.3-2.4 5.5-2.6zm3.6 1.6q-1.2-1.5-2.9-1.6v-3.2q3.2 0.1 5.6 2.6 1.2 1.2 1.8 2.7l-3.5 1.7q-0.3-1.2-1-2.2zm2.7 10.2q-2.4 2.4-5.6 2.5v-3.1q1.7-0.1 2.9-1.7 0.6-0.7 0.9-1.7l3.3 1.8q-0.5 1.2-1.5 2.2z"/>
			<path id="&lt;Compound Path&gt;" class="s6" d="m588.7 884.9q-1.5 0.1-2.7 1.6-1.2 1.6-1.2 3.9 0 2.3 1.2 4 1.2 1.4 2.7 1.6v3.1q-3.3-0.1-5.6-2.5-2.4-2.6-2.4-6.2 0-3.6 2.4-6.2 2.3-2.4 5.6-2.6zm0.6 11.2q1.7-0.1 2.9-1.7 1.3-1.6 1.3-3.9 0-2.3-1.3-4-1.2-1.5-2.9-1.6v-3.2q3.3 0.1 5.7 2.6 2.4 2.5 2.4 6.2 0 3.6-2.4 6.2-2.4 2.4-5.7 2.5z"/>
			<path id="&lt;Compound Path&gt;" class="s6" d="m602.6 899.2h-4v-16.5l4 6.7zm5.7-1.3l-9.7-16.2h3.8l5.9 9.9zm0.9-6.4l5.9-9.9h3.8l-9.7 16.3zm5.7-2.3l3.9-6.6v16.5h-3.9z"/>
		</g>
		<g id="&lt;Group&gt;">
			<path id="&lt;Compound Path&gt;" class="s6" d="m20.1-32.2q-2.3 0.3-4 2.5-2 2.4-2 6 0 3.5 2 6 1.7 2.2 4 2.4v4.9q-4.9-0.2-8.4-3.9-3.8-3.9-3.8-9.5 0-5.5 3.8-9.4 3.5-3.7 8.4-3.9zm1 17q2.6-0.2 4.4-2.5 1.9-2.5 1.9-6 0-3.6-1.9-6.1-1.8-2.3-4.4-2.4v-4.9q5 0.1 8.6 3.9 3.7 3.9 3.7 9.4 0 5.6-3.7 9.5-3.6 3.7-8.6 3.9z"/>
			<path id="&lt;Compound Path&gt;" class="s6" d="m52.4-10.4h-6.1v-26.7h6.1zm12.1-12q0.7 0.7 1.4 2.1 0.3 0.3 0.5 2.4l0.2 0.9 0.5 3q0.2 0.4 0.5 1.8 0.3 0.4 1.1 1.7l-6.3 0.1q-0.3 0-1.1-2.3-0.2-0.3-1-5.3-0.3-1.2-1.5-1.9-1.1-0.4-5.5-0.4v-4.8h4.9q2.8-1 2.8-3.8v-0.4q-0.6-3-3.4-3.1h-4.3v-4.8h4.3q5.4 0 7.8 3 1.7 2.4 1.7 5.2v0.3q0 3.1-1.8 5.5-0.3 0.4-0.8 0.8z"/>
			<path id="&lt;Compound Path&gt;" class="s6" d="m87.5-10.4h-6.1v-26.7h6.1z"/>
			<path id="&lt;Compound Path&gt;" class="s6" d="m112.6-32.2q-2.3 0.3-4 2.5-2 2.4-2 6 0 3.5 2 6 1.7 2.2 4 2.4v4.9q-4.9-0.2-8.4-3.9-3.8-3.9-3.8-9.5 0-5.5 3.8-9.4 3.5-3.7 8.4-3.9zm13.3 8.7q-0.1 5.4-3.7 9.2-3.6 3.7-8.6 3.9v-4.8q2.6-0.2 4.4-2.5 0.3-0.4 0.6-0.9h-5.1v-4.9zm-7.9-6.3q-1.8-2.3-4.4-2.4v-4.9q5 0.1 8.6 3.9 1.8 1.9 2.7 4.2l-5.2 2.6q-0.5-1.9-1.7-3.4z"/>
			<path id="&lt;Compound Path&gt;" class="s6" d="m144.9-10.4h-6v-26.7h6z"/>
			<path id="&lt;Compound Path&gt;" class="s6" d="m163.9-10.4h-6v-25.1l6 10.2zm9.9-0.1l-15.9-26.6h5.8l15.8 26.7zm-0.2-26.7h6v25.1l-6-10.1z"/>
			<path id="&lt;Compound Path&gt;" class="s6" d="m207.3-37l9.4 26.6h-6.8l-1.8-5.7h-7.4l1.4-4.9h4.6v-0.1l-2.8-9.8h-0.1l-5.7 20.5h-5.4v-3.9l7.7-22.7z"/>
			<path id="&lt;Compound Path&gt;" class="s6" d="m235.2-10.4h-6v-26.7h6zm13.8-4.9v4.9h-12.5v-4.9z"/>
			<path id="&lt;Compound Path&gt;" class="s6" d="m290.4-10.4h-6v-26.7h6zm13.5-26.6v4.9h-12.4v-4.9zm-1 10.1v4.9h-11.5v-4.9z"/>
			<path id="&lt;Compound Path&gt;" class="s6" d="m322.9-10.4h-6v-26.7h6zm12.2-12q0.7 0.7 1.4 2.1 0.2 0.3 0.4 2.4l0.2 0.9 0.6 3q0.2 0.4 0.5 1.8 0.3 0.4 1.1 1.7l-6.3 0.1q-0.4 0-1.2-2.3-0.1-0.3-0.9-5.3-0.4-1.2-1.5-1.9-1.2-0.4-5.5-0.4v-4.8h4.8q2.9-1 2.9-3.8v-0.4q-0.6-3-3.4-3.1h-4.3v-4.8h4.3q5.3 0 7.7 3 1.8 2.4 1.8 5.2v0.3q0 3.1-1.8 5.5-0.4 0.4-0.8 0.8z"/>
			<path id="&lt;Compound Path&gt;" class="s6" d="m358-10.4h-6v-26.7h6zm13.6-26.6v4.9h-12.5v-4.9zm-1 10.1v4.9h-11.5v-4.9zm1.1 11.6v4.9h-12.5v-4.9z"/>
			<path id="&lt;Compound Path&gt;" class="s6" d="m390.7-10.4h-6.1v-26.7h6.1zm13.5-26.6v4.9h-12.5v-4.9zm-1 10.1v4.9h-11.4v-4.9zm1 11.6v4.9h-12.5v-4.9z"/>
			<path id="&lt;Compound Path&gt;" class="s6" d="m451.2-10.4h-1.9l-9.8-26.6h5.8l5.9 16.1zm1.1-10.2l6-16.3h5.8l-9.7 26.6h-2.1z"/>
			<path id="&lt;Compound Path&gt;" class="s6" d="m482.4-10.4h-6v-26.7h6zm13.6-26.6v4.9h-12.5v-4.9zm-1 10.1v4.9h-11.5v-4.9zm1.1 11.6v4.9h-12.5v-4.9z"/>
			<path id="&lt;Compound Path&gt;" class="s6" d="m521.2-32.2q-2.3 0.3-4 2.5-2 2.4-2 6 0 3.5 2 6 1.7 2.2 4 2.4v4.9q-4.9-0.2-8.5-3.9-3.7-3.9-3.7-9.5 0-5.5 3.7-9.4 3.6-3.7 8.5-3.9zm5.4 2.4q-1.9-2.3-4.4-2.4v-4.9q4.9 0.1 8.5 3.9 1.8 1.9 2.8 4.2l-5.3 2.6q-0.5-1.9-1.6-3.4zm4.1 15.5q-3.6 3.7-8.5 3.9v-4.8q2.5-0.2 4.4-2.5 0.9-1.2 1.4-2.6l5.1 2.7q-0.9 1.7-2.4 3.3z"/>
			<path id="&lt;Compound Path&gt;" class="s6" d="m566-37v4.9h-19.8v-4.9zm-6.7 26.5h-6.1v-20.6h6.1z"/>
			<path id="&lt;Compound Path&gt;" class="s6" d="m591.4-32.2q-2.3 0.3-4 2.5-2 2.4-2 6 0 3.5 2 6 1.7 2.2 4 2.4v4.9q-4.9-0.2-8.5-3.9-3.7-3.9-3.7-9.5 0-5.5 3.7-9.4 3.6-3.7 8.5-3.9zm1 17q2.5-0.2 4.4-2.5 1.9-2.5 1.9-6 0-3.6-1.9-6.1-1.9-2.3-4.4-2.4v-4.9q5 0.1 8.5 3.9 3.8 3.9 3.8 9.4 0 5.6-3.8 9.5-3.5 3.7-8.5 3.9z"/>
			<path id="&lt;Compound Path&gt;" class="s6" d="m623.7-10.4h-6.1v-26.7h6.1zm12.1-12q0.7 0.7 1.4 2.1 0.3 0.3 0.5 2.4l0.1 0.9 0.6 3q0.2 0.4 0.5 1.8 0.3 0.4 1.1 1.7l-6.3 0.1q-0.3 0-1.1-2.3-0.2-0.3-1-5.3-0.3-1.2-1.5-1.9-1.1-0.4-5.5-0.4v-4.8h4.9q2.8-1 2.8-3.8v-0.4q-0.6-3-3.4-3.1h-4.3v-4.8h4.3q5.4 0 7.8 3 1.7 2.4 1.7 5.2v0.3q0 3.1-1.8 5.5-0.4 0.4-0.8 0.8z"/>
			<path id="&lt;Compound Path&gt;" class="s6" d="m659.5-16.5q1.7 1 3.3 1.2l0.5 0.1v4.8q-4.9 0.1-7.4-2-2.9-1.9-3.1-6.5l5.6-0.5q0.1 1.9 1.1 2.9zm2-5.4q-8-1.4-8-7.4v-0.4q0-6.2 8.1-7.3l1.7-0.1v4.5q-1.8 0.1-2.5 0.4-1.5 0.6-1.4 2.5 0 1.9 4.6 2.7 1.2 0.2 1.9 0.4 8.3 1.4 8.3 7.9v0.4q0 6.6-8.1 7.8l-1.8 0.1v-4.7q1.9-0.2 2.6-0.5 1.5-0.6 1.5-2.7 0-2-4.6-3.1-1.1-0.3-2.3-0.5zm2.6-15.3q4 0 7.1 2.3 1.8 1.5 2.6 5.5v0.2l-3.1 0.4-2.5 0.2q-0.4-2.2-1.3-2.9-0.7-0.6-2.8-1.2z"/>
			<path id="&lt;Compound Path&gt;" class="s6" d="m705.2-16.5q1.7 1 3.2 1.2l0.5 0.1v4.8q-4.8 0.1-7.4-2-2.9-1.9-3.1-6.5l5.6-0.5q0.1 1.9 1.2 2.9zm2-5.4q-8.1-1.4-8.1-7.4v-0.4q0-6.2 8.1-7.3l1.7-0.1v4.5q-1.8 0.1-2.5 0.4-1.4 0.6-1.4 2.5 0 1.9 4.7 2.7 1.1 0.2 1.9 0.4 8.2 1.4 8.2 7.9v0.4q0 6.6-8.1 7.8l-1.8 0.1v-4.7q1.9-0.2 2.6-0.5 1.5-0.6 1.5-2.7 0-2-4.6-3.1-1.1-0.3-2.3-0.5zm2.6-15.3q4 0 7.1 2.3 1.8 1.5 2.6 5.5v0.2l-3.1 0.4-2.5 0.2q-0.3-2.2-1.2-2.9-0.8-0.6-2.8-1.2z"/>
			<path id="&lt;Compound Path&gt;" class="s6" d="m738.9-10.4h-6.1v-26.7h6.1z"/>
			<path id="&lt;Compound Path&gt;" class="s6" d="m757.9-10.4h-6.1v-25.1l6.1 10.2zm9.8-0.1l-15.8-26.6h5.7l15.9 26.7zm-0.3-26.7h6.1v25.1l-6.1-10.1z"/>
			<path id="&lt;Compound Path&gt;" class="s6" d="m798.8-32.2q-2.3 0.3-4 2.5-2 2.4-2 6 0 3.5 2 6 1.7 2.2 4 2.4v4.9q-4.9-0.2-8.4-3.9-3.8-3.9-3.8-9.5 0-5.5 3.8-9.4 3.5-3.7 8.4-3.9zm5.4 2.4q-1.8-2.3-4.4-2.4v-4.9q5 0.1 8.6 3.9 1.8 1.9 2.7 4.2l-5.3 2.6q-0.4-1.9-1.6-3.4zm4.2 15.5q-3.6 3.7-8.6 3.9v-4.8q2.6-0.2 4.4-2.5 0.9-1.2 1.4-2.6l5.1 2.7q-0.9 1.7-2.3 3.3z"/>
			<path id="&lt;Compound Path&gt;" class="s6" d="m830-10.4h-6.1v-26.7h6.1zm13.5-26.6v4.9h-12.5v-4.9zm-1 10.1v4.9h-11.4v-4.9zm1 11.6v4.9h-12.5v-4.9z"/>
			<path id="&lt;Compound Path&gt;" class="s6" d="m878.8-15.5v-0.8q0-6.5 8.4-8.8 0.8-0.2 1.9-0.4 4.6-1.3 4.5-4.2 0-2-1.4-2.5-0.7-0.3-2.6-0.5l0.1-4.4h1.6q8.1 1.1 8.1 7.4v0.4q0 6-7.8 8.9-1.1 0.2-2.2 0.5-5 1.5-4.8 4v5.5h-5.8zm6.4-15.9q-1 0.9-1.1 2.7l-5.3-0.5q0.2-4.3 2.9-6 2.4-2 7-1.9l0.1 4.5-0.5 0.1q-1.5 0.1-3.1 1.1zm14.3 16.1v4.9h-14v-4.9z"/>
			<path id="&lt;Compound Path&gt;" class="s6" d="m920.8-32.1q-2.2 0.4-2.8 3.1v9.7q0 2.8 2.8 3.8v5q-4.6-0.3-6.4-2.3-2.5-3-2.5-6.3v-9.6q0-2.8 1.7-5.4v-0.1-0.1 0.1q2.3-2.8 7.2-2.9zm1.3-5q4.8 0.1 7.1 2.9l0.1-0.1v0.1l-0.1 0.1q1.7 2.6 1.7 5.4v9.6q0 3.2-2.5 6.3-1.8 2-6.3 2.3v-5q2.7-1 2.7-3.8v-9.7q-0.5-2.7-2.7-3.1z"/>
			<path id="&lt;Compound Path&gt;" class="s6" d="m952.8-32.1q-2.2 0.4-2.7 3.1v9.7q0 2.8 2.7 3.8v5q-4.5-0.3-6.3-2.3-2.5-3-2.5-6.3v-9.6q0-2.8 1.7-5.4l-0.1-0.1v-0.1l0.1 0.1q2.3-2.8 7.1-2.9zm1.4-5q4.8 0.1 7.1 2.9l0.1-0.1v0.1l-0.1 0.1q1.7 2.6 1.7 5.4v9.6q0 3.2-2.5 6.3-1.8 2-6.3 2.3v-5q2.7-1 2.7-3.8v-9.7q-0.6-2.7-2.7-3.1z"/>
			<path id="&lt;Compound Path&gt;" class="s6" d="m976.1-32.2v-4.9h20.7v4.9zm6.4 16.2q1.6 0.9 3 1.1l0.6 0.1-0.1 4.4q-4.6 0.1-7-1.8-2.7-1.7-2.9-6l5.3-0.5q0.1 1.8 1.1 2.7zm-0.5-15.4q-0.4 4 4.2 4.2 1.6 0 3.3 0.6 7.2 2.4 7.2 8.4v0.3q0 6.3-8.1 7.4h-1.6l-0.1-4.4q1.9-0.1 2.6-0.4 1.4-0.6 1.4-2.6 0.1-2.9-4-4.2-1.6-0.2-2.9-0.4-8.2-0.6-7.9-8.9z"/>
		</g>
	</g>
</svg>