<svg version="1.2" xmlns="http://www.w3.org/2000/svg" viewBox="0 0 1000 955" width="1000" height="955">
	<title>gramophone-vinyl-vectorportal-ai</title>
	<style>
		.s0 { fill: #151116 } 
		.s1 { fill: #ababab } 
		.s2 { fill: #636363 } 
		.s3 { fill: #959595 } 
		.s4 { mix-blend-mode: multiply;fill: #e6e6e6 } 
		.s5 { fill: #f2f2f2 } 
	</style>
	<g id="Vectorportal.com">
		<g id="1">
			<path id="&lt;Path&gt;" class="s0" d="m913.7 181.8c0 43.6-35.4 79-79 79-43.7 0-79.1-35.4-79.1-79 0-43.7 35.4-79.1 79.1-79.1 43.6 0 79 35.4 79 79.1z"/>
			<path id="&lt;Path&gt;" class="s1" d="m737.3 861.4l-19.5-19.6 92.2-92.2c7-7 10.9-16.3 10.9-26.2v-528.6h27.6v528.6c0 17.3-6.7 33.6-19 45.8z"/>
			<path id="&lt;Path&gt;" class="s1" d="m754 901l-41.3-41.3 7.6-7.6 41.3 41.3z"/>
			<path id="&lt;Path&gt;" class="s2" d="m691.7 892.4l-5-4.9c-7.2-7.2-7.2-18.8 0-26l33.1-33.1c7.2-7.2 18.9-7.2 26 0l5 4.9c7.2 7.2 7.2 18.9 0 26l-33.1 33.1c-7.2 7.2-18.9 7.2-26 0z"/>
			<path id="&lt;Path&gt;" class="s3" d="m884 181.8c0 27.2-22.1 49.3-49.3 49.3-27.3 0-49.3-22.1-49.3-49.3 0-27.3 22-49.3 49.3-49.3 27.2 0 49.3 22 49.3 49.3z"/>
			<path id="&lt;Path&gt;" class="s4" d="m895.2 159.4l-57.7 40.7c-5.6 3.9-13.2 2.6-17.1-2.9-4-5.6-2.6-13.2 2.9-17.1l57.7-40.8c5.5-3.9 13.2-2.6 17.1 3 3.9 5.5 2.6 13.2-2.9 17.1z"/>
			<path id="&lt;Path&gt;" class="s5" d="m897.5 153.6l-57.7 40.8c-5.6 3.9-13.2 2.6-17.1-3-3.9-5.5-2.6-13.2 2.9-17.1l57.7-40.7c5.5-4 13.2-2.6 17.1 2.9 3.9 5.5 2.6 13.2-2.9 17.1z"/>
		</g>
	</g>
</svg>