<svg version="1.2" xmlns="http://www.w3.org/2000/svg" viewBox="0 0 1000 955" width="1000" height="955">
	<title>gramophone-vinyl-vectorportal-ai</title>
	<style>
		.s0 { fill: #959595 } 
		.s1 { fill: #2d2c2f } 
		.s2 { mix-blend-mode: overlay;fill: #b3b3b3 } 
		.s3 { fill: #151116 } 
		.s4 { fill: none;stroke: #151116;stroke-width: 4 } 
		.s5 { fill: #f7931e } 
		.s6 { fill: #ffffff } 
	</style>
	<g id="Vectorportal.com">
		<g id="2">
			<path id="&lt;Path&gt;" class="s0" d="m722.4 413.6c46.3 173.1-56.5 351-229.6 397.2-173.1 46.3-350.9-56.4-397.2-229.5-46.3-173.1 56.5-351 229.5-397.3 173.1-46.3 351 56.5 397.3 229.6z"/>
			<path id="&lt;Path&gt;" class="s1" d="m585.4 735.7c-28.9 21.4-62.2 37.8-98.9 47.8q-0.5 0.1-0.9 0.2c-50.9 13.7-102.2 13.2-149.8 1-42.6-10.9-82.2-31.1-115.9-59-45.8-37.9-80.7-89.9-97.2-151.7-25.1-93.6-2.3-188.8 53.2-259.7 15.4-19.5 33.2-37.2 53.2-52.5 25.8-19.7 55.2-35.4 87.7-46q7.7-2.5 15.6-4.7 1.5-0.4 3.1-0.8 0.8-0.2 1.7-0.4 0.7-0.2 1.5-0.4 1-0.2 2-0.5 1.3-0.3 2.6-0.6 0.1 0 0.2 0 2.3-0.5 4.6-1 5.4-1.2 10.8-2.1 1.6-0.3 3.2-0.5c38-6.2 75.7-4.7 111.6 3.4 12.3 2.8 24.5 6.3 36.3 10.6 24.3 8.9 47.4 20.8 68.5 35.6 13.5 9.4 26.3 19.9 38 31.5 36.7 35.9 64.5 81.8 78.8 135 32.3 120.9-15 244.5-109.9 314.8z"/>
			<path id="&lt;Compound Path&gt;" class="s2" d="m616.5 285.9l-175.4 202.9-58.1 11.7-153.9-238.7c25.8-19.7 55.2-35.4 87.7-46q7.7-2.5 15.6-4.7 1.5-0.4 3.1-0.8 0.8-0.2 1.7-0.4 0.7-0.2 1.5-0.4 1-0.2 2-0.5 1.3-0.3 2.6-0.6 0.1 0 0.2 0 2.3-0.5 4.6-1 5.4-1.2 10.8-2.1 1.6-0.3 3.2-0.5c38-6.2 75.7-4.7 111.6 3.4 12.3 2.8 24.5 6.3 36.3 10.6 24.3 8.9 47.4 20.8 68.5 35.6 13.5 9.4 26.3 19.9 38 31.5z"/>
			<path id="&lt;Path&gt;" class="s2" d="m510 218.8l-72.8 244.3-31.5-3.8-88.9-243.5q7.7-2.5 15.6-4.7 1.5-0.4 3.1-0.8 0.8-0.2 1.7-0.4 0.7-0.2 1.5-0.4c6.2-1.4 13-2.9 20.2-4.2q1.6-0.3 3.2-0.5c38-6.2 75.7-4.7 111.6 3.4 12.3 2.8 24.5 6.3 36.3 10.6z"/>
			<path id="&lt;Path&gt;" class="s2" d="m585.4 735.7c-28.9 21.4-62.2 37.8-98.9 47.8q-0.5 0.1-0.9 0.2c-50.9 13.7-102.2 13.2-149.8 1-42.6-10.9-82.2-31.1-115.9-59l183.8-225.1 66.3 13.2z"/>
			<path id="&lt;Path&gt;" class="s2" d="m486.5 783.5q-0.5 0.1-0.9 0.2c-50.9 13.7-102.2 13.2-149.8 1l51-240h39.9z"/>
			<path id="&lt;Path&gt;" class="s3" d="m525.3 466.3c17.2 64.3-21 130.3-85.2 147.5-64.3 17.1-130.3-21-147.4-85.2-17.2-64.3 20.9-130.3 85.2-147.5 64.2-17.2 130.2 21 147.4 85.2z"/>
			<path id="&lt;Path&gt;" class="s4" d="m589.5 449.2c26.7 99.7-32.5 202.1-132.2 228.8-99.7 26.6-202.2-32.6-228.9-132.3-26.6-99.7 32.6-202.1 132.3-228.8 99.7-26.7 202.1 32.5 228.8 132.3z"/>
			<path id="&lt;Path&gt;" class="s4" d="m651.4 432.6c35.9 133.9-43.7 271.5-177.6 307.3-133.9 35.8-271.5-43.7-307.3-177.6-35.8-133.9 43.7-271.5 177.6-307.3 133.9-35.8 271.5 43.7 307.3 177.6z"/>
			<path id="&lt;Path&gt;" class="s5" d="m485.3 477c11.3 42.2-13.7 85.5-55.9 96.8-42.2 11.3-85.5-13.8-96.8-55.9-11.3-42.2 13.8-85.5 55.9-96.8 42.2-11.3 85.5 13.8 96.8 55.9z"/>
			<path id="&lt;Path&gt;" class="s6" d="m418.2 495c1.4 5.1-1.6 10.3-6.7 11.7-5.2 1.4-10.4-1.7-11.8-6.8-1.4-5.1 1.7-10.4 6.8-11.7 5.1-1.4 10.4 1.6 11.7 6.8z"/>
		</g>
	</g>
</svg>